<?xml version="1.0" encoding="UTF-8" standalone="no"?>
<!-- Created with Inkscape (http://www.inkscape.org/) -->

<svg
   width="107.79738mm"
   height="20.066008mm"
   viewBox="0 0 107.79738 20.066008"
   version="1.1"
   id="svg1"
   xmlns:inkscape="http://www.inkscape.org/namespaces/inkscape"
   xmlns:sodipodi="http://sodipodi.sourceforge.net/DTD/sodipodi-0.dtd"
   xmlns:xlink="http://www.w3.org/1999/xlink"
   xmlns="http://www.w3.org/2000/svg"
   xmlns:svg="http://www.w3.org/2000/svg">
  <sodipodi:namedview
     id="namedview1"
     pagecolor="#ffffff"
     bordercolor="#000000"
     borderopacity="0.25"
     inkscape:showpageshadow="2"
     inkscape:pageopacity="0.0"
     inkscape:pagecheckerboard="0"
     inkscape:deskcolor="#d1d1d1"
     inkscape:document-units="mm"
     inkscape:zoom="1.4473566"
     inkscape:cx="274.98406"
     inkscape:cy="642.89615"
     inkscape:window-width="1920"
     inkscape:window-height="1011"
     inkscape:window-x="0"
     inkscape:window-y="32"
     inkscape:window-maximized="1"
     inkscape:current-layer="layer1">
    <inkscape:page
       x="0"
       y="0"
       width="107.79738"
       height="20.066008"
       id="page2"
       margin="0"
       bleed="0" />
  </sodipodi:namedview>
  <defs
     id="defs1">
    <linearGradient
       id="linearGradient1"
       inkscape:collect="always">
      <stop
         style="stop-color:#6a11cb;stop-opacity:1;"
         offset="0"
         id="stop1" />
      <stop
         style="stop-color:#2575fc;stop-opacity:1;"
         offset="1"
         id="stop2" />
    </linearGradient>
    <linearGradient
       inkscape:collect="always"
       xlink:href="#linearGradient1"
       id="linearGradient2"
       x1="-200.36528"
       y1="471.20386"
       x2="89.818916"
       y2="473.9675"
       gradientUnits="userSpaceOnUse"
       gradientTransform="matrix(0.26458333,0,0,0.26458333,105.47821,65.261214)" />
  </defs>
  <g
     inkscape:label="Layer 1"
     inkscape:groupmode="layer"
     id="layer1"
     transform="translate(-32.108767,-178.47564)">
    <path
       style="font-weight:bold;font-size:96px;line-height:0;font-family:'Ubuntu Sans';-inkscape-font-specification:'Ubuntu Sans Bold';text-align:end;direction:rtl;text-anchor:end;white-space:pre;opacity:0.524;fill:url(#linearGradient2);stroke-width:0.185208;stroke-linecap:round;stroke-linejoin:round"
       d="m 32.108769,198.21144 v -17.6022 h 2.8194 q 0.762,0.7874 1.6256,1.8288 0.8636,1.016 1.778,2.2098 0.9144,1.1684 1.8034,2.413 0.9144,1.2446 1.7526,2.4638 0.8382,1.2192 1.5494,2.3368 v -11.2522 h 3.429 v 17.6022 h -2.8956 q -0.6604,-1.1938 -1.4478,-2.4384 -0.762,-1.27 -1.6256,-2.5654 -0.8382,-1.3208 -1.7526,-2.5654 -0.889,-1.27 -1.8034,-2.4638 -0.9144,-1.1938 -1.8034,-2.2352 v 12.2682 z m 18.74516,0 v -13.3096 h 3.302 v 13.3096 z m 1.651,-15.6972 q -0.8128,0 -1.4224,-0.5334 -0.6096,-0.5588 -0.6096,-1.4986 0,-0.9398 0.6096,-1.4732 0.6096,-0.5334 1.4224,-0.5334 0.8382,0 1.4224,0.5334 0.6096,0.5334 0.6096,1.4732 0,0.9398 -0.6096,1.4986 -0.5842,0.5334 -1.4224,0.5334 z m 10.337795,16.002 q -1.9558,0 -3.0734,-0.6858 -1.0922,-0.7112 -1.5494,-1.9558 -0.4318,-1.27 -0.4318,-2.9972 v -11.43 l 3.302,-0.5334 v 3.9878 h 4.699 v 2.7686 h -4.699 v 5.207 q 0,0.9398 0.2032,1.5748 0.2286,0.6096 0.7112,0.9144 0.508,0.3048 1.3462,0.3048 0.6858,0 1.3208,-0.127 0.6604,-0.1524 1.1684,-0.3556 l 0.4826,2.6162 q -0.6096,0.254 -1.4478,0.4826 -0.8382,0.2286 -2.032,0.2286 z m 6.019794,-0.3048 v -12.6238 q 0.9144,-0.3302 2.2352,-0.635 1.3462,-0.3302 3.0226,-0.3302 0.4318,0 1.016,0.0762 0.5842,0.0508 1.1176,0.1524 0.5588,0.1016 0.9144,0.254 l -0.5588,2.7432 q -0.4572,-0.127 -1.143,-0.254 -0.6604,-0.127 -1.4986,-0.127 -0.508,0 -1.0414,0.0762 -0.508,0.0762 -0.762,0.1778 v 10.4902 z m 16.008295,0.3302 q -1.905,0 -3.3782,-0.8636 -1.4478,-0.889 -2.2606,-2.4638 -0.8128,-1.5748 -0.8128,-3.683 0,-2.1082 0.8382,-3.6576 0.8382,-1.5494 2.286,-2.4384 1.4732,-0.889 3.3274,-0.889 1.8796,0 3.3274,0.889 1.4732,0.8636 2.286,2.4384 0.8128,1.5494 0.8128,3.6576 0,2.1082 -0.8128,3.683 -0.7874,1.5748 -2.2352,2.4638 -1.4224,0.8636 -3.3782,0.8636 z m 0,-2.8448 q 0.9652,0 1.6256,-0.508 0.6858,-0.508 1.0414,-1.4478 0.381,-0.9398 0.381,-2.2098 0,-1.27 -0.381,-2.1844 -0.3556,-0.9144 -1.0414,-1.4224 -0.6604,-0.508 -1.6256,-0.508 -0.9652,0 -1.651,0.508 -0.6858,0.508 -1.0414,1.4224 -0.3556,0.9144 -0.3556,2.1844 0,1.27 0.3556,2.2098 0.3556,0.9144 1.0414,1.4478 0.6858,0.508 1.651,0.508 z m 9.728182,2.5146 v -17.6022 H 106.1052 v 2.921 h -8.026405 v 4.0386 h 7.137405 v 2.8702 h -7.137405 v 4.8514 h 8.636005 v 2.921 z m 20.796195,0.3302 q -2.1336,0 -3.683,-0.8382 -1.524,-0.8382 -2.3622,-2.3876 -0.8128,-1.5748 -0.8128,-3.7084 0,-2.1336 0.7112,-3.7084 0.7112,-1.5748 2.032,-2.413 1.3462,-0.8636 3.2258,-0.8636 0.889,0 1.5748,0.2032 0.7112,0.2032 1.3208,0.4826 v -6.2738 l 3.302,-0.5334 v 19.2786 q -0.6096,0.2032 -1.4986,0.381 -0.889,0.1524 -1.8796,0.254 -0.9652,0.127 -1.9304,0.127 z m 0.0254,-2.8448 q 0.6604,0 1.1684,-0.0508 0.508,-0.0762 0.8128,-0.127 v -7.3914 q -0.381,-0.2794 -1.0414,-0.4826 -0.635,-0.2032 -1.3716,-0.2032 -0.7874,0 -1.3716,0.2794 -0.5588,0.254 -0.9398,0.7874 -0.381,0.508 -0.5588,1.27 -0.1778,0.7366 -0.1778,1.7018 0,1.2954 0.4064,2.2352 0.4064,0.9398 1.1938,1.4732 0.7874,0.508 1.8796,0.508 z m 9.01698,2.5146 v -13.3096 h 3.302 v 13.3096 z m 1.651,-15.6972 q -0.8128,0 -1.4224,-0.5334 -0.6096,-0.5588 -0.6096,-1.4986 0,-0.9398 0.6096,-1.4732 0.6096,-0.5334 1.4224,-0.5334 0.8382,0 1.4224,0.5334 0.6096,0.5334 0.6096,1.4732 0,0.9398 -0.6096,1.4986 -0.5842,0.5334 -1.4224,0.5334 z m 10.33779,16.002 q -1.9558,0 -3.0734,-0.6858 -1.0922,-0.7112 -1.5494,-1.9558 -0.4318,-1.27 -0.4318,-2.9972 v -11.43 l 3.302,-0.5334 v 3.9878 h 4.699 v 2.7686 h -4.699 v 5.207 q 0,0.9398 0.2032,1.5748 0.2286,0.6096 0.7112,0.9144 0.508,0.3048 1.3462,0.3048 0.6858,0 1.3208,-0.127 0.6604,-0.1524 1.1684,-0.3556 l 0.4826,2.6162 q -0.6096,0.254 -1.4478,0.4826 -0.8382,0.2286 -2.032,0.2286 z"
       id="text1"
       aria-label="NitroEdit"
       inkscape:export-filename="logo-with-text.svg"
       inkscape:export-xdpi="96"
       inkscape:export-ydpi="96" />
  </g>
</svg>
